<svg xmlns="http://www.w3.org/2000/svg" xmlns:xlink="http://www.w3.org/1999/xlink" width="500" zoomAndPan="magnify" viewBox="0 0 375 131.249995" height="175" preserveAspectRatio="xMidYMid meet" version="1.2"><g id="f8b6c3933a"><path style=" stroke:none;fill-rule:nonzero;fill:#df7257;fill-opacity:1;" d="M 285.433594 67.917969 C 286.257812 67.917969 287.082031 67.917969 287.902344 67.917969 C 289.507812 67.917969 291.117188 67.917969 292.722656 67.917969 C 294.027344 67.917969 295.335938 67.917969 296.640625 67.917969 L 298.347656 67.917969 C 301.898438 67.917969 305.449219 67.917969 309 67.917969 C 312.035156 67.917969 315.074219 67.917969 318.113281 67.917969 C 322.03125 67.917969 325.949219 67.917969 329.867188 67.917969 L 330.429688 67.917969 C 331.734375 67.917969 333.035156 67.917969 334.339844 67.917969 C 335.929688 67.917969 337.519531 67.917969 339.113281 67.917969 C 339.921875 67.917969 340.730469 67.917969 341.542969 67.917969 C 347.117188 67.914062 347.117188 67.914062 349.496094 68.03125 L 349.945312 68.050781 C 352.992188 68.230469 356.109375 69.429688 358.652344 71.101562 C 359.980469 72.015625 361.171875 73.050781 362.335938 74.160156 L 362.71875 74.503906 C 365.089844 76.707031 366.710938 79.824219 367.679688 82.871094 C 368.820312 86.691406 368.945312 90.769531 368.101562 94.664062 C 367.261719 98.167969 365.628906 101.15625 363.160156 103.773438 L 362.75 104.195312 L 362.230469 104.738281 L 361.710938 105.230469 L 361.339844 105.597656 C 358.875 107.902344 355.800781 109.683594 352.523438 110.539062 C 348.117188 111.503906 343.429688 111.269531 338.949219 111.265625 C 338.1875 111.265625 337.425781 111.265625 336.664062 111.265625 C 335.175781 111.269531 333.6875 111.269531 332.199219 111.265625 C 330.988281 111.265625 329.777344 111.265625 328.566406 111.265625 L 326.984375 111.265625 C 323.691406 111.269531 320.398438 111.265625 317.105469 111.265625 C 314.289062 111.265625 311.476562 111.265625 308.660156 111.265625 C 305.027344 111.269531 301.394531 111.269531 297.761719 111.265625 L 297.238281 111.265625 C 296.03125 111.265625 294.824219 111.265625 293.617188 111.265625 C 292.144531 111.269531 290.667969 111.269531 289.195312 111.265625 C 288.445312 111.265625 287.695312 111.265625 286.945312 111.265625 C 284.257812 111.269531 281.578125 111.261719 278.894531 111.15625 L 278.328125 111.132812 C 274.671875 110.964844 271.328125 109.8125 268.238281 107.875 C 266.800781 106.933594 265.5625 105.820312 264.351562 104.609375 L 263.847656 104.113281 C 261.316406 101.472656 259.796875 98.113281 258.902344 94.601562 C 258.609375 93.382812 258.390625 92.191406 258.34375 90.9375 L 258.3125 90.261719 C 258.207031 86.109375 259.132812 82.015625 261.0625 78.339844 C 261.652344 77.339844 262.34375 76.476562 263.109375 75.609375 C 263.25 75.441406 263.390625 75.273438 263.535156 75.101562 C 265.808594 72.457031 268.558594 70.289062 271.847656 69.058594 C 276.183594 67.535156 280.894531 67.914062 285.433594 67.917969 M 312.824219 78.71875 C 310.945312 80.007812 309.597656 81.515625 308.535156 83.53125 C 307.371094 86.035156 306.777344 88.796875 307.023438 91.558594 C 307.324219 94.160156 307.910156 96.492188 309.40625 98.679688 C 309.648438 99.003906 309.886719 99.320312 310.132812 99.640625 L 310.613281 100.300781 C 312.167969 101.929688 314.097656 102.863281 316.226562 103.523438 C 318.523438 104.078125 321.046875 103.933594 323.324219 103.375 C 325.0625 102.832031 326.59375 102.015625 327.914062 100.753906 C 329.515625 98.988281 330.507812 97.21875 331.054688 94.875 L 330.847656 94.667969 C 329.945312 94.5625 329.039062 94.542969 328.128906 94.511719 L 327.359375 94.457031 C 326.597656 94.4375 325.988281 94.449219 325.253906 94.667969 C 324.742188 95.203125 324.433594 95.714844 324.109375 96.382812 C 323.777344 96.996094 323.457031 97.289062 322.886719 97.683594 C 321.8125 98.316406 320.835938 98.539062 319.597656 98.679688 C 318.238281 98.542969 317.09375 98.160156 315.976562 97.363281 C 315.0625 96.582031 314.269531 95.816406 313.808594 94.695312 L 313.652344 94.253906 L 313.46875 93.765625 C 312.902344 92.050781 312.84375 90.242188 313.03125 88.453125 C 313.347656 86.949219 313.917969 85.503906 314.898438 84.308594 C 315.785156 83.367188 316.710938 82.496094 317.972656 82.113281 C 319.328125 81.859375 320.570312 81.933594 321.886719 82.34375 C 322.703125 82.667969 323.222656 83.03125 323.804688 83.6875 C 324.128906 84.101562 324.433594 84.53125 324.722656 84.972656 L 325.046875 85.34375 C 325.4375 85.492188 325.4375 85.492188 325.890625 85.5 L 326.433594 85.535156 C 327.902344 85.570312 329.375 85.566406 330.847656 85.554688 C 330.546875 83.859375 330.03125 82.464844 328.996094 81.078125 C 327.519531 79.332031 325.875 78.289062 323.738281 77.5 C 320.011719 76.214844 316.183594 76.683594 312.824219 78.71875 M 275.746094 77.265625 L 275.746094 103.160156 L 280.925781 103.160156 C 281.054688 102.105469 281.160156 101.167969 281.171875 100.125 L 281.179688 99.335938 L 281.183594 98.925781 C 281.191406 98.492188 281.195312 98.0625 281.203125 97.632812 C 281.214844 96.566406 281.226562 95.5 281.242188 94.433594 C 281.25 93.527344 281.261719 92.625 281.273438 91.71875 C 281.28125 91.292969 281.285156 90.871094 281.289062 90.445312 L 281.300781 89.671875 L 281.308594 88.988281 C 281.339844 88.453125 281.339844 88.453125 281.546875 88.039062 C 282.300781 89.796875 282.976562 91.574219 283.621094 93.375 L 283.90625 94.167969 C 284.253906 95.132812 284.601562 96.101562 284.945312 97.070312 C 285.242188 97.898438 285.539062 98.722656 285.835938 99.546875 C 285.972656 99.929688 286.109375 100.316406 286.246094 100.699219 L 286.503906 101.40625 L 286.722656 102.023438 C 286.925781 102.578125 286.925781 102.578125 287.347656 103.160156 C 287.785156 103.265625 287.785156 103.265625 288.292969 103.265625 L 288.855469 103.289062 L 289.445312 103.304688 L 290.035156 103.324219 C 290.519531 103.339844 291.003906 103.355469 291.488281 103.367188 C 292.222656 101.785156 292.824219 100.164062 293.417969 98.523438 L 293.730469 97.667969 C 294.003906 96.917969 294.277344 96.171875 294.546875 95.421875 C 294.875 94.515625 295.207031 93.609375 295.535156 92.699219 C 295.792969 91.996094 296.050781 91.289062 296.304688 90.582031 C 296.765625 89.316406 297.226562 88.054688 297.703125 86.796875 L 297.710938 87.148438 C 297.808594 92.488281 297.914062 97.824219 298.117188 103.160156 L 303.296875 103.160156 L 303.296875 77.265625 C 300.714844 77.265625 298.195312 77.289062 295.632812 77.472656 C 294.582031 80.371094 293.554688 83.273438 292.554688 86.1875 L 292.285156 86.964844 C 291.925781 88.011719 291.566406 89.0625 291.203125 90.113281 C 290.949219 90.859375 290.691406 91.609375 290.433594 92.359375 L 290.195312 93.054688 L 289.976562 93.691406 L 289.785156 94.25 C 289.625 94.667969 289.625 94.667969 289.417969 94.875 L 289.160156 94.128906 C 288.761719 92.988281 288.363281 91.847656 287.96875 90.707031 L 287.75 90.085938 C 286.910156 87.671875 286.0625 85.261719 285.175781 82.863281 C 284.667969 81.476562 284.214844 80.074219 283.785156 78.660156 C 283.605469 77.902344 283.605469 77.902344 283.203125 77.265625 Z M 334.785156 77.265625 L 334.578125 77.472656 C 334.558594 77.808594 334.550781 78.140625 334.550781 78.472656 L 334.550781 80.613281 C 334.550781 81.304688 334.554688 81.992188 334.554688 82.683594 C 334.554688 83.402344 334.558594 84.121094 334.558594 84.839844 C 334.558594 86.203125 334.558594 87.566406 334.5625 88.929688 C 334.5625 90.480469 334.566406 92.03125 334.566406 93.582031 C 334.566406 96.777344 334.570312 99.96875 334.578125 103.160156 L 340.375 103.160156 L 340.167969 94.253906 L 344.519531 94.253906 C 347.808594 93.886719 347.808594 93.886719 350.746094 92.453125 C 352.058594 91.40625 353.066406 90.261719 353.695312 88.691406 C 354.238281 87.046875 354.1875 85.152344 353.90625 83.457031 C 353.609375 82.167969 353.066406 81.125 352.207031 80.125 C 351.300781 79.1875 350.417969 78.335938 349.164062 77.914062 C 346.230469 77.109375 343.183594 77.234375 340.167969 77.238281 C 339.488281 77.242188 338.808594 77.238281 338.132812 77.238281 C 337.699219 77.238281 337.269531 77.238281 336.839844 77.238281 L 335.65625 77.238281 L 335.160156 77.242188 Z M 334.785156 77.265625 "/><path style=" stroke:none;fill-rule:nonzero;fill:#010101;fill-opacity:1;" d="M 89.105469 80.582031 C 91.042969 81.230469 92.28125 82.609375 93.613281 84.097656 C 93.839844 84.355469 94.0625 84.613281 94.289062 84.875 C 96.023438 86.863281 97.816406 88.804688 99.820312 90.527344 C 100.363281 91.003906 100.890625 91.503906 101.417969 92 C 102.949219 93.425781 104.617188 94.667969 106.296875 95.910156 L 106.667969 96.1875 C 108.867188 97.832031 111.195312 99.261719 113.546875 100.675781 L 113.96875 100.933594 C 121.851562 105.734375 131.066406 108.464844 140.0625 110.203125 L 140.621094 110.3125 C 145.394531 111.222656 150.203125 111.277344 155.050781 111.277344 C 155.765625 111.277344 156.476562 111.28125 157.191406 111.285156 C 161.445312 111.296875 165.675781 111.109375 169.851562 110.269531 L 170.695312 110.101562 C 183.851562 107.492188 196.488281 102.195312 206.652344 93.292969 C 207.929688 92.160156 209.191406 91.015625 210.378906 89.785156 C 211.121094 89.03125 211.910156 88.375 212.746094 87.726562 L 213.097656 87.457031 C 213.609375 87.066406 214.023438 86.792969 214.636719 86.589844 C 215.695312 86.476562 216.699219 86.449219 217.71875 86.785156 C 218.496094 87.152344 219.089844 87.519531 219.699219 88.128906 L 220.023438 88.660156 L 220.386719 89.191406 C 220.78125 90.277344 220.839844 91.246094 220.644531 92.390625 C 220.054688 93.714844 219.160156 94.785156 218.105469 95.769531 C 217.71875 96.140625 217.378906 96.535156 217.03125 96.945312 C 216.429688 97.640625 215.792969 98.242188 215.09375 98.832031 C 214.585938 99.269531 214.101562 99.726562 213.613281 100.183594 C 212.238281 101.4375 210.765625 102.550781 209.273438 103.660156 C 208.867188 103.964844 208.460938 104.273438 208.058594 104.578125 C 203.679688 107.878906 198.859375 110.535156 193.921875 112.898438 L 193.429688 113.132812 C 187.371094 116.046875 181.023438 117.988281 174.449219 119.316406 L 173.890625 119.433594 C 171.847656 119.847656 169.804688 120.207031 167.742188 120.496094 L 167.214844 120.570312 C 164.585938 120.921875 161.957031 121.007812 159.308594 121.011719 L 158.4375 121.011719 C 157.832031 121.011719 157.226562 121.015625 156.621094 121.015625 C 156.011719 121.015625 155.402344 121.015625 154.792969 121.019531 C 150.046875 121.039062 145.390625 120.847656 140.695312 120.082031 L 140.277344 120.015625 C 126.46875 117.789062 112.730469 112.734375 101.53125 104.195312 L 100.949219 103.761719 C 100.3125 103.289062 99.679688 102.8125 99.046875 102.332031 L 98.699219 102.066406 C 97.089844 100.84375 95.570312 99.5625 94.101562 98.171875 C 93.636719 97.734375 93.160156 97.3125 92.675781 96.894531 C 90.195312 94.734375 87.746094 92.347656 85.789062 89.695312 L 85.378906 89.15625 C 84.535156 88.003906 83.855469 86.941406 83.652344 85.507812 C 83.609375 84.675781 83.703125 84 84.042969 83.234375 C 84.535156 82.367188 85.160156 81.746094 85.996094 81.203125 C 87.011719 80.671875 87.957031 80.421875 89.105469 80.582031 "/><path style=" stroke:none;fill-rule:nonzero;fill:#020202;fill-opacity:1;" d="M 208.496094 29.246094 C 211.382812 30.636719 213.746094 32.605469 215.644531 35.203125 C 218.039062 38.902344 219.476562 42.894531 219.789062 47.316406 L 219.816406 47.851562 L 219.839844 48.375 C 219.949219 52.820312 218.867188 57.097656 216.851562 61.03125 C 216.164062 62.277344 215.355469 63.347656 214.429688 64.421875 L 214.144531 64.800781 C 212.484375 66.9375 209.863281 68.566406 207.386719 69.601562 C 204.347656 70.730469 200.929688 70.890625 197.75 70.371094 C 194.671875 69.738281 192.21875 68.453125 189.777344 66.496094 C 189.660156 69.167969 189.570312 71.835938 189.527344 74.511719 L 189.515625 75.152344 C 189.492188 76.441406 189.492188 76.441406 189.472656 77.730469 C 189.382812 84.398438 189.382812 84.398438 188.546875 85.824219 C 188.128906 86.371094 187.769531 86.699219 187.1875 87.066406 L 186.714844 87.375 C 185.667969 87.941406 184.597656 87.898438 183.425781 87.890625 C 182.191406 87.785156 181.3125 87.285156 180.289062 86.628906 C 179.71875 86.058594 179.296875 85.480469 179.007812 84.722656 C 178.847656 83.765625 178.765625 82.832031 178.734375 81.863281 L 178.722656 81.457031 C 178.707031 81.011719 178.695312 80.566406 178.683594 80.121094 L 178.671875 79.644531 C 178.5625 75.644531 178.5625 71.644531 178.566406 67.644531 C 178.566406 66.59375 178.566406 65.546875 178.5625 64.496094 C 178.5625 62.738281 178.5625 60.980469 178.566406 59.222656 C 178.566406 57.207031 178.566406 55.191406 178.566406 53.175781 C 178.5625 51.421875 178.5625 49.671875 178.566406 47.921875 C 178.566406 46.882812 178.566406 45.847656 178.5625 44.808594 C 178.558594 37.476562 178.558594 37.476562 178.660156 34.164062 L 178.671875 33.535156 C 178.71875 32.289062 178.910156 31.179688 179.421875 30.035156 C 179.945312 29.34375 180.558594 28.851562 181.285156 28.378906 C 181.90625 28.128906 182.484375 28.019531 183.148438 27.964844 L 183.875 27.898438 C 185.1875 28.019531 186.273438 28.402344 187.359375 29.15625 C 188.132812 29.773438 188.527344 30.386719 188.949219 31.28125 L 189.15625 31.902344 L 189.644531 31.5 C 191.777344 29.773438 194.011719 28.347656 196.761719 27.847656 C 200.738281 27.367188 204.828125 27.5625 208.496094 29.246094 M 194.058594 38.847656 C 192.195312 40.207031 191.09375 41.773438 190.085938 43.820312 C 189.335938 45.570312 189.289062 47.136719 189.285156 49.015625 L 189.269531 49.828125 C 189.265625 51.84375 189.515625 53.707031 190.527344 55.484375 C 191.65625 57.210938 193.074219 58.703125 194.90625 59.664062 C 196.863281 60.511719 198.867188 60.433594 200.964844 60.28125 C 202.699219 60.003906 204.054688 59.332031 205.429688 58.25 C 206.921875 56.902344 207.941406 55.238281 208.601562 53.347656 C 209.320312 50.871094 209.417969 48 208.875 45.46875 C 208.222656 43.304688 206.996094 41.347656 205.355469 39.785156 C 204.246094 38.894531 202.90625 38.171875 201.539062 37.773438 C 198.9375 37.441406 196.296875 37.375 194.058594 38.847656 "/><path style=" stroke:none;fill-rule:nonzero;fill:#000000;fill-opacity:1;" d="M 162.464844 28.867188 C 163.964844 29.5 165.308594 30.25 166.578125 31.28125 L 167.089844 31.691406 C 169.902344 34.078125 171.648438 37.085938 172.902344 40.511719 C 174.445312 44.96875 174.644531 49.582031 173.792969 54.207031 C 173.039062 57.960938 171.589844 61.300781 169.0625 64.214844 L 168.679688 64.691406 C 166.800781 66.945312 164.320312 68.539062 161.605469 69.601562 C 158.519531 70.695312 154.949219 70.820312 151.734375 70.292969 C 149.382812 69.816406 147.257812 68.796875 145.402344 67.296875 L 144.839844 66.839844 L 144.414062 66.496094 L 144.40625 67.167969 C 144.382812 69.261719 144.351562 71.355469 144.316406 73.449219 C 144.296875 74.523438 144.28125 75.601562 144.269531 76.675781 C 144.257812 77.714844 144.242188 78.753906 144.222656 79.796875 C 144.214844 80.191406 144.210938 80.585938 144.207031 80.980469 C 144.183594 84.0625 144.183594 84.0625 143.734375 85.164062 C 143.109375 86.132812 142.328125 86.878906 141.304688 87.417969 C 140.089844 87.90625 138.867188 87.976562 137.578125 87.832031 C 136.550781 87.5625 135.734375 87.1875 134.910156 86.523438 C 133.730469 85.03125 133.730469 85.03125 133.5625 84.058594 C 133.378906 81.828125 133.40625 79.597656 133.40625 77.359375 L 133.40625 75.945312 C 133.40625 74.671875 133.40625 73.398438 133.40625 72.121094 C 133.40625 70.785156 133.40625 69.445312 133.40625 68.109375 C 133.40625 65.71875 133.40625 63.328125 133.40625 60.9375 C 133.40625 58.777344 133.40625 56.617188 133.40625 54.453125 C 133.40625 51.9375 133.40625 49.417969 133.40625 46.902344 C 133.40625 45.574219 133.40625 44.242188 133.40625 42.914062 C 133.40625 41.660156 133.40625 40.410156 133.40625 39.160156 C 133.40625 38.703125 133.40625 38.246094 133.40625 37.789062 C 133.402344 31.363281 133.402344 31.363281 134.160156 30.035156 C 134.753906 29.257812 135.417969 28.796875 136.28125 28.355469 C 137.378906 27.925781 138.488281 27.863281 139.648438 27.964844 C 140.601562 28.164062 141.355469 28.484375 142.171875 29.015625 C 142.871094 29.644531 143.285156 30.460938 143.730469 31.277344 L 144 31.695312 L 144.414062 31.695312 C 144.65625 31.484375 144.894531 31.269531 145.125 31.046875 C 146.105469 30.167969 147.171875 29.582031 148.347656 29 L 148.828125 28.753906 C 152.777344 26.839844 158.488281 27.269531 162.464844 28.867188 M 147.933594 39.359375 C 146.292969 40.636719 145.390625 42.230469 144.621094 44.121094 C 143.679688 46.714844 143.546875 49.832031 144.015625 52.539062 C 144.558594 54.539062 145.644531 56.523438 147.105469 58 C 148.285156 58.988281 149.578125 59.800781 151.042969 60.28125 C 151.757812 60.386719 152.453125 60.390625 153.179688 60.371094 L 153.757812 60.363281 C 155.429688 60.3125 156.953125 60.175781 158.4375 59.347656 C 160.089844 58.246094 161.375 56.984375 162.363281 55.257812 C 163.707031 52.515625 163.835938 49.8125 163.679688 46.816406 C 163.421875 44.792969 162.605469 42.898438 161.382812 41.269531 C 160.101562 39.777344 158.757812 38.757812 156.917969 38.050781 C 153.765625 36.992188 150.679688 37.484375 147.933594 39.359375 "/><path style=" stroke:none;fill-rule:nonzero;fill:#010101;fill-opacity:1;" d="M 261.90625 28.289062 C 262.851562 28.820312 263.546875 29.550781 264.144531 30.449219 C 264.550781 31.3125 264.589844 32.132812 264.511719 33.070312 C 264.386719 34.210938 264.023438 35.148438 263.550781 36.1875 L 263.300781 36.746094 C 262.574219 38.375 261.804688 39.980469 261.027344 41.585938 C 260.355469 42.976562 259.722656 44.375 259.113281 45.792969 C 258.789062 46.546875 258.445312 47.292969 258.097656 48.035156 L 257.910156 48.4375 C 257.222656 49.902344 256.53125 51.367188 255.835938 52.828125 C 254.105469 56.488281 252.398438 60.164062 250.714844 63.847656 C 242.785156 81.164062 242.785156 81.164062 237.101562 85.285156 C 235.382812 86.46875 233.425781 87.472656 231.332031 87.699219 C 230.128906 87.722656 229.105469 87.707031 227.996094 87.195312 C 227.078125 86.664062 226.398438 86.035156 225.824219 85.136719 C 225.378906 84.230469 225.332031 83.359375 225.355469 82.363281 C 225.460938 81.285156 225.773438 80.371094 226.34375 79.457031 C 227.074219 78.703125 227.921875 78.308594 228.851562 77.835938 C 231.011719 76.683594 232.617188 75.5625 233.964844 73.472656 C 235.039062 71.613281 235.039062 71.613281 235.765625 69.601562 C 235.703125 68.5 235.257812 67.546875 234.820312 66.546875 L 234.578125 65.984375 C 233.65625 63.882812 232.667969 61.808594 231.683594 59.734375 C 230.691406 57.636719 229.71875 55.523438 228.761719 53.40625 C 227.785156 51.242188 226.78125 49.085938 225.75 46.949219 C 225.15625 45.710938 224.585938 44.464844 224.042969 43.203125 C 223.660156 42.3125 223.257812 41.425781 222.84375 40.550781 C 222.253906 39.292969 221.671875 38.03125 221.097656 36.769531 L 220.855469 36.242188 C 220.191406 34.777344 219.710938 33.421875 219.75 31.796875 C 219.855469 30.960938 220.15625 30.304688 220.644531 29.621094 C 221.449219 28.835938 222.375 28.316406 223.464844 28.03125 C 226.269531 27.769531 226.269531 27.769531 227.570312 28.222656 C 228.585938 28.722656 229.160156 29.144531 229.804688 30.082031 C 230.59375 31.371094 231.175781 32.761719 231.792969 34.140625 L 232.199219 35.050781 C 232.414062 35.523438 232.628906 36 232.839844 36.472656 C 233.324219 37.550781 233.816406 38.632812 234.3125 39.707031 L 234.515625 40.152344 L 234.925781 41.046875 C 236.488281 44.453125 238.019531 47.875 239.535156 51.300781 C 239.878906 52.082031 240.226562 52.863281 240.574219 53.640625 L 240.804688 54.15625 L 241.246094 55.144531 C 241.515625 55.746094 241.769531 56.339844 241.980469 56.964844 L 242.601562 56.964844 L 242.765625 56.441406 C 243.035156 55.667969 243.359375 54.933594 243.703125 54.191406 L 243.902344 53.75 C 244.121094 53.277344 244.339844 52.804688 244.554688 52.332031 L 245.011719 51.34375 C 245.382812 50.53125 245.757812 49.71875 246.128906 48.90625 C 246.589844 47.910156 247.050781 46.910156 247.507812 45.910156 L 247.777344 45.328125 C 248.589844 43.554688 249.386719 41.769531 250.183594 39.988281 C 250.917969 38.34375 251.660156 36.707031 252.433594 35.078125 C 252.667969 34.570312 252.894531 34.054688 253.109375 33.539062 C 253.898438 31.65625 254.675781 29.867188 256.234375 28.484375 C 258.039062 27.632812 260.054688 27.488281 261.90625 28.289062 M 109.761719 27.703125 C 110.191406 27.707031 110.621094 27.703125 111.046875 27.703125 C 114.464844 27.699219 117.484375 28.214844 120.539062 29.789062 C 122.675781 31.027344 124.230469 32.507812 125.5625 34.59375 C 127.945312 38.800781 127.875 43.34375 127.867188 48.03125 C 127.867188 48.492188 127.867188 48.949219 127.867188 49.40625 C 127.871094 50.363281 127.867188 51.320312 127.867188 52.277344 C 127.867188 53.496094 127.867188 54.714844 127.867188 55.933594 C 127.871094 56.878906 127.871094 57.824219 127.867188 58.769531 C 127.867188 59.21875 127.867188 59.667969 127.867188 60.117188 C 127.875 66.65625 127.875 66.65625 127.335938 67.6875 C 127.023438 68.132812 126.726562 68.460938 126.3125 68.8125 L 125.957031 69.121094 C 125.144531 69.6875 124.328125 69.878906 123.347656 69.976562 C 122.300781 70.046875 121.425781 69.980469 120.4375 69.628906 C 119.621094 69.21875 119.042969 68.6875 118.519531 67.945312 C 118.25 67.394531 118.074219 66.878906 117.898438 66.289062 L 117.617188 66.507812 C 115.210938 68.355469 112.664062 69.980469 109.613281 70.429688 C 105.765625 70.699219 102.039062 70.625 98.527344 68.917969 C 96.394531 67.761719 94.945312 66.5 93.660156 64.421875 C 92.597656 62.460938 92.128906 60.578125 92.144531 58.351562 L 92.148438 57.832031 C 92.195312 55.4375 92.84375 53.429688 94.074219 51.375 C 95.59375 49.164062 97.457031 47.519531 99.871094 46.351562 C 103.3125 44.796875 107.152344 44.925781 110.855469 45.160156 C 112.984375 45.386719 115.035156 45.925781 117.042969 46.664062 C 117.472656 46.839844 117.472656 46.839844 117.898438 46.816406 C 118.003906 44.867188 117.765625 42.820312 117.015625 41.007812 C 116.449219 39.988281 115.789062 39.222656 114.820312 38.566406 C 112.960938 37.546875 110.945312 37.398438 108.867188 37.441406 C 106.761719 37.53125 105.082031 38.398438 103.269531 39.382812 C 100.886719 40.679688 100.886719 40.679688 99.535156 40.824219 C 98.667969 40.792969 97.945312 40.601562 97.183594 40.1875 C 96.601562 39.695312 96.601562 39.695312 96.148438 39.152344 L 95.695312 38.660156 C 95.230469 37.988281 95.050781 37.46875 94.902344 36.664062 C 94.863281 35.820312 94.96875 35.113281 95.324219 34.339844 C 96.53125 32.359375 98.390625 30.886719 100.398438 29.765625 C 103.347656 28.214844 106.457031 27.683594 109.761719 27.703125 M 104.46875 53.949219 C 103.667969 54.527344 103.285156 55.132812 102.828125 55.996094 C 102.542969 56.839844 102.421875 57.542969 102.570312 58.417969 C 102.851562 59.335938 103.199219 60.070312 103.863281 60.773438 C 105.53125 61.757812 107.207031 61.964844 109.132812 61.988281 C 110.800781 61.988281 112.355469 61.820312 113.863281 61.050781 C 115.054688 60.308594 115.980469 59.414062 116.691406 58.207031 C 117.292969 57.054688 117.71875 56 117.691406 54.6875 C 115.527344 53.417969 112.945312 52.71875 110.441406 52.617188 L 109.839844 52.589844 C 107.757812 52.546875 106.238281 52.8125 104.46875 53.949219 "/><path style=" stroke:none;fill-rule:nonzero;fill:#000000;fill-opacity:1;" d="M 79.714844 29.265625 C 81.992188 30.445312 83.78125 32.121094 85.214844 34.238281 C 86.628906 36.523438 87.574219 39.054688 87.675781 41.761719 C 87.683594 42.390625 87.6875 43.015625 87.6875 43.644531 L 87.691406 44.363281 C 87.691406 45.148438 87.695312 45.929688 87.695312 46.710938 L 87.699219 48.347656 C 87.703125 49.347656 87.703125 50.34375 87.703125 51.339844 C 87.703125 52.804688 87.707031 54.265625 87.714844 55.730469 C 87.71875 57 87.71875 58.273438 87.722656 59.542969 C 87.722656 60.082031 87.722656 60.621094 87.726562 61.160156 C 87.730469 61.917969 87.730469 62.671875 87.726562 63.425781 L 87.734375 64.09375 C 87.726562 65.398438 87.59375 66.546875 87.03125 67.738281 C 86.601562 68.269531 86.601562 68.269531 86.125 68.65625 L 85.65625 69.058594 C 84.742188 69.6875 83.851562 69.914062 82.761719 70.007812 C 81.71875 70.027344 80.839844 69.824219 79.910156 69.347656 C 79.007812 68.789062 78.3125 68.195312 77.707031 67.324219 C 76.964844 65.800781 77.023438 64.28125 77.011719 62.617188 L 77 61.773438 C 76.992188 61.175781 76.988281 60.578125 76.980469 59.980469 C 76.972656 59.046875 76.960938 58.117188 76.949219 57.183594 C 76.929688 55.804688 76.914062 54.425781 76.898438 53.046875 C 76.886719 52.152344 76.875 51.261719 76.867188 50.371094 C 76.855469 49.394531 76.84375 48.417969 76.824219 47.445312 C 76.820312 47.109375 76.816406 46.769531 76.8125 46.433594 C 76.800781 44.574219 76.6875 42.917969 75.847656 41.222656 C 75.167969 40.074219 74.375 39.320312 73.265625 38.578125 C 71.917969 37.925781 70.585938 37.835938 69.113281 37.84375 L 68.609375 37.832031 C 67.429688 37.832031 66.566406 38.050781 65.488281 38.53125 C 64.601562 39.050781 63.910156 39.640625 63.210938 40.394531 L 62.667969 40.949219 C 62.007812 41.761719 61.75 42.695312 61.554688 43.707031 C 61.3125 45.445312 61.285156 47.199219 61.242188 48.953125 L 61.214844 49.917969 C 61.160156 52.039062 61.125 54.164062 61.101562 56.285156 C 61.089844 57.003906 61.082031 57.71875 61.070312 58.4375 L 61.066406 58.871094 C 61.054688 59.730469 61.042969 60.589844 61.035156 61.449219 C 61.027344 62.121094 61.019531 62.792969 61.011719 63.464844 L 61.003906 64.210938 C 60.972656 66.320312 60.972656 66.320312 60.515625 67.324219 C 59.949219 68.1875 59.226562 68.953125 58.34375 69.5 C 57.082031 70.054688 55.644531 69.929688 54.304688 69.808594 C 53.476562 69.636719 52.828125 69.296875 52.101562 68.863281 C 51.339844 68.082031 50.789062 67.300781 50.367188 66.289062 C 50.191406 65.171875 50.203125 64.070312 50.214844 62.945312 C 50.214844 62.609375 50.214844 62.277344 50.210938 61.941406 C 50.210938 61.039062 50.214844 60.140625 50.21875 59.238281 C 50.226562 58.289062 50.226562 57.34375 50.226562 56.398438 C 50.226562 54.808594 50.230469 53.21875 50.238281 51.628906 C 50.25 49.796875 50.253906 47.964844 50.25 46.128906 C 50.25 44.171875 50.253906 42.214844 50.261719 40.257812 C 50.261719 39.695312 50.261719 39.132812 50.261719 38.570312 C 50.265625 37.6875 50.265625 36.800781 50.273438 35.917969 C 50.277344 35.59375 50.277344 35.269531 50.277344 34.945312 C 50.273438 31.628906 50.273438 31.628906 50.988281 30.242188 C 51.640625 29.453125 52.375 28.886719 53.265625 28.378906 C 54.339844 27.984375 55.445312 27.824219 56.582031 27.964844 C 57.644531 28.207031 58.53125 28.679688 59.339844 29.410156 C 60.050781 30.269531 60.484375 31.300781 60.929688 32.316406 L 61.214844 32.003906 C 62.9375 30.183594 64.976562 28.96875 67.351562 28.171875 C 71.328125 27.03125 76.003906 27.574219 79.714844 29.265625 "/><path style=" stroke:none;fill-rule:nonzero;fill:#010101;fill-opacity:1;" d="M 40.617188 29.867188 C 42.082031 30.710938 43.261719 31.78125 44.25 33.148438 C 44.785156 34.082031 44.941406 35.046875 45 36.113281 C 44.976562 36.789062 44.886719 37.324219 44.609375 37.941406 C 44.011719 38.859375 43.214844 39.507812 42.246094 40.007812 C 41.492188 40.300781 40.777344 40.445312 39.972656 40.421875 C 38.570312 40.203125 37.308594 39.402344 36.074219 38.738281 C 33.496094 37.375 30.8125 36.753906 27.871094 36.832031 C 26.628906 36.929688 25.5 37.09375 24.371094 37.636719 C 23.8125 38.105469 23.8125 38.105469 23.449219 38.800781 C 23.199219 39.550781 23.199219 39.550781 23.203125 40.304688 C 23.398438 41.050781 23.398438 41.050781 23.96875 41.648438 C 24.707031 42.214844 25.515625 42.539062 26.382812 42.859375 L 26.820312 43.023438 C 28.425781 43.605469 30.066406 44.023438 31.722656 44.433594 C 33.523438 44.878906 35.292969 45.347656 37.03125 45.996094 C 37.164062 46.042969 37.296875 46.09375 37.433594 46.144531 C 39.550781 46.957031 41.585938 48.238281 43.117188 49.921875 C 43.65625 50.644531 44.140625 51.40625 44.566406 52.203125 L 44.789062 52.574219 C 45.523438 53.960938 45.527344 55.367188 45.515625 56.902344 C 45.511719 57.339844 45.519531 57.773438 45.527344 58.210938 C 45.539062 60.039062 45.257812 61.558594 44.359375 63.179688 C 43.917969 63.847656 43.445312 64.449219 42.910156 65.046875 L 42.503906 65.507812 C 40.640625 67.511719 38.242188 68.941406 35.660156 69.808594 C 33.558594 70.390625 31.527344 70.539062 29.367188 70.523438 L 28.90625 70.519531 C 24.035156 70.488281 19.742188 69.648438 15.449219 67.335938 L 14.984375 67.089844 C 13.65625 66.339844 12.546875 65.394531 11.757812 64.074219 C 11.296875 63.136719 11.136719 62.421875 11.160156 61.359375 C 11.265625 60.488281 11.574219 59.773438 12.042969 59.039062 C 12.757812 58.222656 13.539062 57.605469 14.542969 57.1875 C 15.320312 56.941406 15.996094 56.878906 16.808594 56.964844 C 17.867188 57.375 18.863281 57.890625 19.871094 58.410156 C 23.578125 60.316406 27.058594 61.230469 31.234375 61.160156 C 32.34375 61.078125 33.246094 60.847656 34.175781 60.238281 C 34.566406 59.945312 34.566406 59.945312 35.039062 59.453125 C 35.296875 58.679688 35.351562 57.976562 35.246094 57.171875 C 34.9375 56.523438 34.632812 56.105469 34.074219 55.652344 C 32.191406 54.382812 29.925781 53.898438 27.753906 53.367188 C 23.65625 52.359375 19.542969 51.269531 16.402344 48.289062 C 15.03125 46.941406 14.019531 45.492188 13.289062 43.707031 C 12.988281 42.464844 13.035156 41.214844 13.027344 39.941406 L 13.015625 39.199219 C 13.007812 37.425781 13.226562 35.96875 14.015625 34.371094 C 15.398438 32.238281 17.023438 30.597656 19.292969 29.414062 C 25.429688 26.539062 34.546875 26.867188 40.617188 29.867188 "/><path style=" stroke:none;fill-rule:nonzero;fill:#df765a;fill-opacity:1;" d="M 340.167969 81.824219 C 340.964844 81.804688 341.757812 81.796875 342.550781 81.785156 L 343.226562 81.769531 C 344.574219 81.757812 345.582031 81.847656 346.796875 82.445312 C 347.355469 82.941406 347.730469 83.511719 348.105469 84.15625 C 348.328125 85.046875 348.359375 85.882812 348.25 86.796875 C 347.972656 87.660156 347.578125 88.289062 346.953125 88.945312 C 345.324219 89.90625 343.246094 89.910156 341.398438 89.929688 C 341.058594 89.929688 340.71875 89.921875 340.375 89.902344 L 340.167969 89.695312 C 340.152344 89.113281 340.144531 88.535156 340.148438 87.953125 L 340.148438 87.425781 C 340.152344 86.867188 340.152344 86.304688 340.15625 85.746094 C 340.15625 85.367188 340.160156 84.992188 340.160156 84.613281 C 340.160156 83.683594 340.164062 82.753906 340.167969 81.824219 "/></g></svg>